<?xml version="1.0" encoding="UTF-8" standalone="no"?>
<!-- Created with Inkscape (http://www.inkscape.org/) -->

<svg
   width="1024"
   height="500"
   viewBox="0 0 270.93333 132.29167"
   version="1.1"
   id="svg2510"
   inkscape:version="1.2 (dc2aedaf03, 2022-05-15)"
   sodipodi:docname="feature-graphic-1024x500.svg"
   inkscape:export-filename="feature-graphic-1024x500.png"
   inkscape:export-xdpi="96"
   inkscape:export-ydpi="96"
   xmlns:inkscape="http://www.inkscape.org/namespaces/inkscape"
   xmlns:sodipodi="http://sodipodi.sourceforge.net/DTD/sodipodi-0.dtd"
   xmlns="http://www.w3.org/2000/svg"
   xmlns:svg="http://www.w3.org/2000/svg">
  <sodipodi:namedview
     id="namedview2512"
     pagecolor="#ffffff"
     bordercolor="#000000"
     borderopacity="0.25"
     inkscape:showpageshadow="2"
     inkscape:pageopacity="0.0"
     inkscape:pagecheckerboard="0"
     inkscape:deskcolor="#d1d1d1"
     inkscape:document-units="mm"
     showgrid="false"
     inkscape:zoom="0.17727627"
     inkscape:cx="78.972781"
     inkscape:cy="389.22299"
     inkscape:window-width="1920"
     inkscape:window-height="1017"
     inkscape:window-x="-8"
     inkscape:window-y="-8"
     inkscape:window-maximized="1"
     inkscape:current-layer="layer3" />
  <defs
     id="defs2507" />
  <g
     inkscape:label="text"
     inkscape:groupmode="layer"
     id="layer1"
     style="display:inline">
    <text
       xml:space="preserve"
       style="font-size:20.1625px;display:inline;fill:#338000;stroke-width:0.075609"
       x="7.0705414"
       y="-212.05882"
       id="text397"
       transform="matrix(0,0.85919186,-1.1638844,0,0,0)"><tspan
         sodipodi:role="line"
         id="tspan395"
         x="7.0705414"
         y="-212.05882"
         style="font-size:20.1625px;fill:#338000;stroke-width:0.075609">BRAIN GAMES</tspan><tspan
         sodipodi:role="line"
         x="7.0705414"
         y="-186.8557"
         style="font-size:20.1625px;fill:#338000;stroke-width:0.075609"
         id="tspan2665" /></text>
  </g>
  <g
     inkscape:groupmode="layer"
     id="layer3"
     inkscape:label="icon 1">
    <path
       style="display:inline;fill:#000000;stroke-width:0.167652"
       d="M 59.881335,59.004953 V 21.26995 h 41.837995 41.83793 V 59.004953 96.73991 H 101.71933 59.881335 Z M 139.32049,76.917108 V 60.915591 h -12.44547 -12.44546 v 7.5629 7.562899 h 4.50158 4.50156 v 1.831056 1.831017 h -6.79649 -6.79644 V 59.004953 38.306442 h 6.79644 6.79649 v 1.831009 1.831001 h -4.50156 -4.50158 v 7.562947 7.562908 h 12.44546 12.44547 V 41.092759 25.091234 H 101.71933 64.118112 v 16.001525 16.001548 h 12.445511 12.445466 v -7.562908 -7.562947 h -4.50156 -4.501567 v -1.831001 -1.831009 h 6.531659 6.531657 v 20.698511 20.69851 H 86.537621 80.005962 V 77.872446 76.04139 h 4.501567 4.50156 v -7.562899 -7.5629 H 76.563623 64.118112 v 16.001517 16.001565 h 37.601218 37.60116 z M 68.178342,78.031634 V 66.806709 h 6.531675 6.531652 v 1.831016 1.831001 H 76.73839 72.235143 l 0.04581,7.523121 0.04581,7.523105 H 85.964887 99.602986 V 59.004953 32.494915 H 85.964887 72.326762 l -0.04581,7.523112 -0.04581,7.523144 h 4.503247 4.503279 v 1.831001 1.831017 H 74.710017 68.178342 V 39.978224 28.75326 h 33.540988 33.54096 v 11.224964 11.224965 h -6.53166 -6.53168 v -1.831017 -1.831001 h 4.50326 4.50328 l -0.0458,-7.523144 -0.0459,-7.523112 H 117.4737 103.83563 v 26.510038 26.509999 h 13.63807 13.63809 l 0.0459,-7.523105 0.0458,-7.523121 h -4.50328 -4.50326 v -1.831001 -1.831016 h 6.53168 6.53166 V 78.031634 89.256599 H 101.71933 68.178342 Z"
       id="path195" />
    <text
       xml:space="preserve"
       style="font-style:normal;font-variant:normal;font-weight:bold;font-stretch:normal;font-size:11.9039px;font-family:sans-serif;-inkscape-font-specification:'sans-serif, Bold';font-variant-ligatures:normal;font-variant-caps:normal;font-variant-numeric:normal;font-variant-east-asian:normal;display:inline;fill:#ffcc00;stroke-width:0.0446396"
       x="82.55468"
       y="81.07695"
       id="text333"
       transform="scale(0.7262731,1.3768925)"><tspan
         id="tspan331"
         style="font-style:normal;font-variant:normal;font-weight:bold;font-stretch:normal;font-size:11.9039px;font-family:sans-serif;-inkscape-font-specification:'sans-serif, Bold';font-variant-ligatures:normal;font-variant-caps:normal;font-variant-numeric:normal;font-variant-east-asian:normal;fill:#ffcc00;stroke-width:0.0446396"
         x="82.55468"
         y="81.07695"
         sodipodi:role="line">3D MAZE PUZZLE</tspan></text>
  </g>
</svg>
