<?xml version="1.0" encoding="UTF-8" standalone="no"?>
<!-- Created with Inkscape (http://www.inkscape.org/) -->

<svg
   width="1024"
   height="1024"
   viewBox="0 0 270.93333 270.93333"
   version="1.1"
   id="svg38384"
   inkscape:version="1.2 (dc2aedaf03, 2022-05-15)"
   sodipodi:docname="icon-1024x1024.svg"
   inkscape:export-filename="icon-1024x1024.png"
   inkscape:export-xdpi="96"
   inkscape:export-ydpi="96"
   xmlns:inkscape="http://www.inkscape.org/namespaces/inkscape"
   xmlns:sodipodi="http://sodipodi.sourceforge.net/DTD/sodipodi-0.dtd"
   xmlns="http://www.w3.org/2000/svg"
   xmlns:svg="http://www.w3.org/2000/svg">
  <sodipodi:namedview
     id="namedview38386"
     pagecolor="#ffffff"
     bordercolor="#000000"
     borderopacity="0.25"
     inkscape:showpageshadow="2"
     inkscape:pageopacity="0.0"
     inkscape:pagecheckerboard="0"
     inkscape:deskcolor="#d1d1d1"
     inkscape:document-units="mm"
     showgrid="false"
     inkscape:zoom="0.78374771"
     inkscape:cx="237.95923"
     inkscape:cy="516.74792"
     inkscape:window-width="1920"
     inkscape:window-height="1017"
     inkscape:window-x="-8"
     inkscape:window-y="-8"
     inkscape:window-maximized="1"
     inkscape:current-layer="layer3" />
  <defs
     id="defs38381" />
  <g
     inkscape:groupmode="layer"
     id="layer3"
     inkscape:label="CI">
    <path
       style="fill:#000000;stroke-width:0.26476"
       d="M 73.222687,135.46667 V 72.209936 h 62.243973 62.24399 V 135.46667 198.7234 H 135.46666 73.222687 Z m 118.184763,30.02692 v -26.82405 h -18.51561 -18.51561 v 12.67803 12.67804 h 6.69712 6.69715 v 3.06942 3.06942 h -10.11138 -10.11135 v -34.69778 -34.69779 h 10.11135 10.11138 v 3.06943 3.06941 h -6.69715 -6.69712 v 12.67805 12.67802 h 18.51561 18.51561 V 105.43974 78.615683 H 135.46666 79.525874 v 26.824057 26.82405 h 18.515614 18.515622 v -12.67802 -12.67805 h -6.69715 -6.69713 v -3.06941 -3.06943 h 9.71741 9.71742 v 34.69779 34.69778 h -9.71742 -9.71741 v -3.06942 -3.06942 h 6.69713 6.69715 V 151.34757 138.66954 H 98.041488 79.525874 v 26.82405 26.82407 h 55.940786 55.94079 z m -105.841023,1.86835 v -18.81688 h 9.717413 9.71741 v 3.06941 3.06943 h -6.699709 -6.699702 l 0.06823,12.61131 0.06823,12.61131 h 20.289941 20.28994 V 135.46667 91.026814 H 112.02824 91.738297 l -0.06823,12.611306 -0.06823,12.61132 h 6.699699 6.699714 v 3.06941 3.06943 H 95.283844 85.56643 V 103.57139 84.754527 h 49.90023 49.90023 v 18.816863 18.81689 h -9.7174 -9.71744 v -3.06943 -3.06941 h 6.69972 6.69971 l -0.0682,-12.61132 -0.0682,-12.611306 h -20.28996 -20.28993 v 44.439856 44.43985 h 20.28993 20.28996 l 0.0682,-12.61131 0.0682,-12.61131 h -6.69971 -6.69972 v -3.06943 -3.06941 h 9.71744 9.7174 v 18.81688 18.81687 H 135.46666 85.566427 Z"
       id="path195" />
  </g>
</svg>
